# xmcd
# 
# Track frame offsets:
#     150
#     40275
#     76326
#     106399
#     133847
#     154691
#     179973
# 
# Disc length: 2814
# 
# Revision: 1
# Processed by: cddbd v1.5.2PL0 Copyright (c) Steve Scherf et al.
# Submitted via: BonkEnc v1.0.6
# 
DISCID=5d0afc07
DTITLE=Hans Jürgen Diedrich - Balduin Pfiff Box CD2
DYEAR=0
DGENRE=
TTITLE0=Die Dame mit den schwarzlackierten Fingernägeln 1
TTITLE1=Die Dame mit den schwarzlackierten Fingernägeln 2
TTITLE2=Die parfümiete Kuh 1
TTITLE3=Die parfümiete Kuh 2
TTITLE4=Die parfümiete Kuh 3
TTITLE5=Besuch nach Mitternacht 1
TTITLE6=Besuch nach Mitternacht 2
EXTD=Balduin Pfiff
EXTT0=
EXTT1=
EXTT2=
EXTT3=
EXTT4=
EXTT5=
EXTT6=
PLAYORDER=
